<svg xmlns="http://www.w3.org/2000/svg"><symbol id="bg-triangle" viewBox="0 12.452 320 37"><path fill="#fff" d="M320 12.452H0v21.723l160 15.277 160-15.277z"/></symbol><symbol id="htmlacademy" viewBox="0 0 60 60"><path fill="#2E368F" d="M30.2 5H30L10.3 7.1v36.2L30 55l19.7-11.7V7.1L30.2 5zm17 36.8L30 52 12.8 41.8V27l17.1 10.2V39l-11.7-7v1.8L30 40.9v1.9l-11.8-7v1.8l11.8 7 11.9-7.1v-7.6l5.3-3.2v15.1zm-.1-17l-4.7 2.8-2.2 1.3-10.3-6.1v1.8l8.8 5.3h-.1l-.2.1-1.3.7-7.3-4.3v1.8l5.8 3.4-1.4.9-4.3-2.6v1.8l2.9 1.7-2.9 1.7-17-10.1 17-10.2 17.2 10zm.1-1.8L29.9 12.8 12.8 23V9.4L30 7.6l17.2 1.8V23z"/></symbol><symbol id="icon-facebook"><path d="M6.275 3.356h2.398V0H5.795C2.656.181 1.54 2.387 1.948 6.114H0v3.518h1.959v9.312h3.837V9.632h2.857V6.114H5.787c-.022-1.045-.037-2.405.488-2.758z"/></symbol><symbol id="icon-like" viewBox="0 0 22 20"><g id="Core" transform="translate(-295 -464)"><path fill="#b2b2b2" d="M12.383 3.646l-.637 2.929L11.219 9H19.9v2l.001.058L17 18H8V8.029l.014-.015 4.369-4.368M2 10v8-8M13.2 0L6.6 6.6c-.4.3-.6.8-.6 1.4v10c0 1.1.9 2 2 2h9c.8 0 1.5-.5 1.8-1.2l3-7.1c.1-.2.1-.5.1-.7V9h.1c0-1.1-.9-2-2-2h-6.3l1-4.6v-.3c0-.4-.2-.8-.4-1.1l-1.1-1zM4 8H0v12h4V8zm18 1v.044V9z" transform="translate(295 464)" id="thumb-up"/></g></symbol><symbol id="icon-mail" viewBox="0 0 16 16"><path d="M8 10c-.266 0-.5-.094-1-.336L0 6v7c0 .55.45 1 1 1h14c.55 0 1-.45 1-1V6L9 9.664c-.5.242-.734.336-1 .336zm7-8H1c-.55 0-1 .45-1 1v.758l8 4.205 8-4.205V3c0-.55-.45-1-1-1z"/></symbol><symbol id="icon-phone" viewBox="0 0 18 18"><g id="Page-1"><g id="Icons-Communication" transform="translate(-85 -126)"><path fill="#010101" d="M3.6 7.8c1.4 2.8 3.8 5.1 6.6 6.6l2.2-2.2c.3-.3.699-.4 1-.2 1.1.4 2.3.6 3.6.6.6 0 1 .4 1 1V17c0 .6-.4 1-1 1C7.6 18 0 10.4 0 1c0-.6.4-1 1-1h3.5c.6 0 1 .4 1 1 0 1.2.2 2.4.6 3.6.1.3 0 .7-.2 1L3.6 7.8z" transform="translate(85 126)" id="phone"/></g></g></symbol><symbol id="icon-tick" viewBox="0 0 23.049 16.249"><path d="M22.801 1.299L21.75.248a.853.853 0 00-1.203 0L8.693 12.102 2.502 5.911a.853.853 0 00-1.203 0L.248 6.962a.852.852 0 000 1.202l7.837 7.837a.845.845 0 00.608.246c.22.002.44-.079.608-.246l13.5-13.5a.852.852 0 000-1.202z"/></symbol><symbol id="icon-twitter" viewBox="0 0 17.5 14.663"><path fill-rule="evenodd" clip-rule="evenodd" d="M11.283.153c1.736-.484 3.074.264 3.685 1.15.694-.225 1.372-.47 2.072-.69-.004.841-.538 1.478-.883 1.728.704.165 1.343-.481 1.343-.481-.175.977-1.035 1.746-1.611 1.977-.239 6.592-3.272 10.956-10.382 10.823h-.46c-.422 0-4.29-.45-5.047-1.843 2.341.192 4.011-.412 4.835-1.15-.989-.293-2.761-.464-3.07-2.881.362.105.583.223 1.228.117C1.757 8.067.385 7.366.461 5.218c.294.319 1.1.523 1.381.461C1.117 5.444-.188 2.398.921.843 2.794 2.655 4.769 4.364 8.29 4.528c.216-2.24 1.171-3.74 2.993-4.375z" id="W6EeEF_1_"/></symbol><symbol id="icon-youtube" viewBox="0 0 19.979 14.015"><path d="M17.145 0H2.835A2.842 2.842 0 000 2.835v8.345a2.842 2.842 0 002.835 2.835h14.31a2.842 2.842 0 002.835-2.835V2.835A2.844 2.844 0 0017.145 0zM7.036 10.392V3.623l6.769 3.384-6.769 3.385z"/></symbol><symbol id="logo-sedona" viewBox="42.184 0.016 101.668 83.985"><style/><path fill="#FFF" d="M122.023 17.332l-15.187.084c6.001-6.931 8.697-6.19 15.187-.084zM80.849 22.69h26.68c-1.985-1.233-6.708-7.059-9.308-4.893-.212.178-7.505-8.848-12.296-4.499-4.179 3.799-6.12-.498-10.857 2.511-5.399 3.57 3.12 5.675 5.781 6.881z"/><path fill="#23A9E1" d="M43.242.721l49.523 58.35 49.324-57.997z"/><path fill="#491213" d="M93.104.016h-50.92v22.463l50.581 61.522.339-.424 50.748-60.394V.016H93.104zm0 57.052l-.339.409L45.892 1.793h94.419L93.104 57.068z"/><path fill="#491213" d="M92.765 57.477l.339-.409L120.68 24.78c-6.913.949-11.864 6.077-18.604 4.956-3.396-.564-3.498-2.514-4.469-4.456-.746-1.493-1.937-1.303-3.487-1.91-1.442-.565-2.277-1.738-5.162-1.061-2.528.593-2.807 4.518-5.952 4.293-1.689-.121-1.811-2.497-4.244-5.539-6.302-7.571-12.158-6.523-16.247.475l30.25 35.939z"/><path fill="#23A9E1" d="M88.745 70.916l4.02-6.5 4.004 6.5-4.004 6.514z"/><path fill="#491213" d="M124.567 20.258c-.035-.039-3.714-3.86-9.46-7.639-5.281-3.474-13.444-7.624-22.346-7.667-8.921-.049-16.971 4.087-22.156 7.566-5.632 3.78-9.18 7.61-9.215 7.648l-.706-.649c.036-.04 3.661-3.954 9.387-7.796 5.298-3.554 13.54-7.774 22.696-7.729 9.144.044 17.493 4.287 22.888 7.837 5.832 3.839 9.57 7.727 9.606 7.766l-.694.663zM48.363 1.2h.783v6.627h-.783zm5.753-.267h.783v12.634h-.783z"/><path fill="#491213" d="M60.363 1.017h.784v18.43h-.784zm6.416-.084h.783v13.495h-.783zM73.42.819h.784v9.18h-.784zm6.91.255h.782v5.683h-.782zm6.346-.156h.783v4.104h-.783z"/><path transform="rotate(-117.2 63.977 8.09)" fill="#491213" d="M56.928 7.699h14.095v.784H56.928z"/><path transform="rotate(-129.094 70.537 5.927)" fill="#491213" d="M65.248 5.536h10.575v.783H65.248z"/><path transform="rotate(-138.45 76.793 4.466)" fill="#491213" d="M72.811 4.074h7.972v.783h-7.972z"/><path transform="rotate(-153.942 83.907 3.365)" fill="#491213" d="M80.394 2.974h7.032v.783h-7.032z"/><path transform="rotate(-155.172 89.891 3.129)" fill="#491213" d="M86.769 2.738h6.246v.783h-6.246z"/><path fill="#491213" d="M136.324 1.257h.783v5.781h-.783zm-5.753-.536h.784v12.973h-.784zm-6.246.536h.782v18.458h-.782zm-6.416-.226h.782v13.241h-.782zm-6.641-.042h.783V10h-.783zm-6.91-.31h.783v6.078h-.783zm-6.475.493h1.015v3.85h-1.015z"/><path transform="rotate(-152.73 121.517 8.029)" fill="#491213" d="M121.129 1.052h.782v13.956h-.782z"/><path transform="rotate(-140.642 114.957 5.87)" fill="#491213" d="M114.566.643h.783v10.461h-.783z"/><path transform="rotate(-131.562 108.665 4.46)" fill="#491213" d="M108.268.475h.783v7.97h-.783z"/><path transform="rotate(-116.009 101.563 3.365)" fill="#491213" d="M101.169-.154h.784v7.032h-.784z"/><path transform="rotate(-114.776 95.583 3.136)" fill="#491213" d="M95.196.013h.783v6.246h-.783z"/><path fill="#FFF" d="M65.464 32.265c.513.618.891 1.284.806 2.116-.059.579-.936 1.55-.27 1.846l2.242-2.834c-.602-.151-5.365-5.848-5.442-6.472l-3.159 1.734c.164.661 1.294.005 1.854.046.828.06 1.425.56 1.953 1.152-1.728 1.449-5.931 5.017-6.374 5.09-.226.036-1.088-.601-1.101-.056-.006.262.852 1.014 1.015 1.21l2.229 2.653c.619-.282-.11-.732.205-1.243.232-.374 4.901-4.267 6.042-5.242zm-5.273-6.98c.443-.095.624.434.958-.056L58.7 22.312c-.371-.442-.84-.916-.706.018.089.63-6.113 5.664-6.493 5.82-.479.197-.758-.417-1.109.097l2.193 2.608c.246.292.477.612.747.882.339.339.208-.672.224-.585-.091-.513.527-.948.855-1.228 1.545-1.361 5.398-4.588 5.78-4.639zm-8.771-.917c-1.767.523-3.65-.164-4.207-2.042-.543-1.835.614-3.757 2.071-4.801 1.439-1.032 3.589-.97 4.373.838.346.799.158 1.706-.094 2.502-.16.506-.597 1 .056 1.289l2.581-3.286c-1.055-.633-1.518-1.683-2.3-2.595-.882-1.071-2.064-2.079-3.482-2.284-2.87-.406-5.574 2.556-5.795 5.245-.136 1.457.374 2.848 1.246 4.001.75.994 1.868 1.623 2.435 2.754.262.095 2.705-1.033 3.286-1.255-.052-.111-.089-.275-.17-.366-.761.226 0 0 0 0zm39.3 36.409c-1.15-.768-4.025-4.689-4.573-5.341l-.329-.392c-.011-.014-.284.225-.246.191-.173.145.134.573-.052.864-.793 1.241-5.758 4.983-6.016 5.163-.556.384-1.164-.159-1.489.316.719.854 2.78 3.543 3.019 3.582.479.078.148-.815.211-1 .123-.369 2.633-2.445 3.549-3.211.336-.281.688.426.888.723.327.484.474 1 .298 1.568-.116.37-.717.92-.25 1.174l2.613-3.049c.252-.293-.566-.037-.469-.087-.37.191-.718.235-1.063-.028-.096-.071-1.089-1.082-.99-1.166.431-.361.959-.963 1.517-1.1.862-.213 1.582 1.516 1.709 2.129a3.45 3.45 0 01-.076 1.75c-.124.387-.487.696.018.93.712-.974 1.422-1.946 2.131-2.92a.708.708 0 01-.4-.096c-.127-.085.139.07 0 0zm-10.224-4.131c2.205-1.855 2.482-5.053.769-7.339-1.867-2.489-5.371-3.096-7.804-1.052-2.204 1.854-2.489 5.047-.758 7.325 1.991 2.621 5.199 2.918 7.793 1.066 1.156-.975-.099.07 0 0zm-.465-4.753c-.647 1.51-2.201 3.063-3.732 3.667-1.818.715-3.1-.827-2.36-2.553.65-1.516 2.203-3.057 3.737-3.666 1.852-.735 3.066.846 2.355 2.552-.381.89.071-.169 0 0zm-5.979-9.856c.475.06.926.55 1.269.042-.742-.879-1.484-1.758-2.228-2.637-.595.269.047.549-.194.971-.244.427-2.56.781-3.176.89.224-.644.895-2.615 1.157-2.835.544-.445.883.432 1.283-.141l-2.743-3.253c-.31-.366-.559-1.028-.98-.68.038-.031.006 1.472-.089 1.733-.086.236-.936 3.638-1.926 4.47-.493.414-2.237 1.934-2.702 2.097-.541.189-.825-.598-1.22-.038l2.491 2.957c.125.148.602.863.767.893.521.094.06-.893.113-1.086.151-.431 2.5-2.719 3.497-2.859 1.461-.205 3.2-.702 4.681-.524.339.042-.352-.043 0 0z"/><path fill="#DC6243" d="M67.792 22.874c-4.043-.167-2.351-3.954.395-4.808 2.611-.813 8.089 1.717 9.843 3.398-2.783.855-6.386.732-9.447.874-.226-3.12-.958-2.032-.791.536zm1.015 4.85c-2.04-1.579-1.396-5.266 1.763-4.146 4.005 2.084-.856 3.239-1.763 4.146 0 0 .042-.042 0 0zm8.488 7.699c-8.62-.071-2.792-13.322.141-12.521 3.373 1.073 2.995 12.622-.141 12.521zm6.106-4.329c-.84 2.501-2.361 2.968-2.192-.07.194-3.503 2.479-2.662 4.93-4.004 2.04-1.119 3.139-5.214 6.641-2.765 1.562 1.093 3.352.179 3.851 1.833-.025-.084-4.545 10.308-2.031 10.308-4.961 0-2.773-5.922-.874-9.899-1.847.885-4.842 6.688-2.382 7.643-1.281 1.686-5.194 3.945-7.234 2.298-1.552-1.249-.692-3.325-.709-5.344zm4.104 9.603c-3.489 1.046-8.122-1.207-2.51-2.34 3.483-.704 7.187.778 2.51 2.34.141-.042-.128.043 0 0zm4.37-.141c-.736-1.658.562-3.635 2.68-2.199 1.847 1.252-.851 3.106-2.68 2.199zm-2.946 4.668c-2.411-.747-10.537-.561-5.218-2.764 1.64-.679 10.154.098 5.218 2.764zm3.215-.353c-.007-.96-.512-2.679 1.354-1.946 2.235.879-1.354 2.651-1.354 1.946 0 0 0-.169 0 0zm7.219 3.667c-1.437-1.227-2.891-1.295-4.229 0-1.795-3.293-8.318-2.19-11.366-2.651 1.638 4.029 14.864 4.78 15.595 2.651zm-1.903 2.424c-3.151-.146-6.671-.563-9.646.084 1.86.466 6.396 1.795 2.172 2.918 1.515 2.168 3.973 2.029 5.584.127-.655-.322-1.01-.719-1.552-1.057 1.672-.303 3.234-1.267 3.442-2.072zm3.596-3.877c-5.288-3.112-3.95-5.427.354-7.586 2.254-1.131 7.324-5.208 9.447-3.85l-9.801 11.436z"/><path fill="#F49774" d="M97.291 39.809c-4.479-4.601 6.689-4.178 8.487-5.796 1.311.437 10.768-8.283 13.071-7.741-1.655 1.941-5.22 8.136-7.775 8.136-1.964 0-3.95-.292-5.472 1.107-2.224 2.048-5.908 3.09-8.311 4.294z"/><path fill="#F4B1A4" d="M98.758 34.183c-2.453 1.319-4.772-3.907-.537-3.398 2.813.338 5.662-.237 8.348.226-1.927 2.291-4.706 3.553-7.811 3.172z"/><path fill="#491213" d="M92.167 1.426h.938v3.313h-.938z"/><g fill="#FFF"><path d="M111.39 52.466c.191.648.299 1.332.215 2.009-.107.873-.979 2.925-2.173 2.34-1.169-.573-2.194-1.728-3.188-2.552.802-.936 1.507-1.749 2.854-1.295.37.123.688-.036.299-.262-.405-.234-3.114-1.965-3.261-1.799-.271.311.528.868.221 1.473-.229.447-.61.834-.932 1.219-.72-.607-1.923-1.253-1.057-2.256.542-.66 1.25-1.172 2.098-1.342.565-.114 1.841.389 2.006-.224l-3.258-1.565c.177.799-3.349 4.525-4.131 5.464-.113.137-.658.609-.664.797-.009.429.622.097.657.084.486-.18 6.816 5.109 6.973 5.471.1.281-.221.574-.029.732-.011-.01.228.216.253.184.391-.468 4.522-5.975 5.374-6.217-.794-1.215-1.588-2.43-2.368-3.652-.59.258-.019.949.111 1.391zm-6.161 6.703c-2.077-1.34-5.596 1.279-6.125 1.531-1.039.492-1.789-.543-1.251-1.502.469-.83 1.393-1.234 2.31-1.289.277-.017 1.35.198 1.459.026.13-.202.228-.22.042-.345l-2.567-1.734c-.176 1.055-1.385 1.727-2.076 2.441-.823.854-1.52 1.93-1.52 3.156 0 1.135.679 2.142 1.677 2.66 1.136.592 2.317.116 3.324-.511.627-.392 1.254-.856 1.924-1.171.996-.467 2.304-.062 1.953 1.27-.282 1.073-1.351 2.061-2.405 2.34-.616.164-1.27.109-1.872-.09-.432-.142-.993-.734-1.23-.111l3.482 2.537c.103-.76.522-1.09 1.086-1.564.735-.645 1.438-1.32 1.994-2.13 1.159-1.693 1.538-4.062-.205-5.514z"/><path d="M105.229 59.169c.925.598-.591-.494 0 0zm29.233-37.314c-.007.004-.007.004 0 0z"/><path d="M141.92 19.645c-.729.729-8.42-2.341-8.982-2.764-.29-.116-.3-1.321-.705-.833-.404.488-.81.976-1.216 1.463l-1.256 1.513c-.26.314-.537.458-.038.72.837-.419 5.417 7.346 5.008 8.461-.725.376-6.915-5.057-7.081-5.415-.052-.146.273-1.021-.211-.945-.229.036-.743.896-.889 1.072l-.889 1.072c.332.485.517-.021.959.042.383.077 1.844 1.331 2.241 1.664-.725.027-2.685.131-2.934.113-.903.112-.422-.663-1.015-.931-.759.922-1.52 1.843-2.277 2.764l-1.326 1.607c-.054.065-.047.032.05.112.33.273.104.168.568.006.506-.177 6.559 4.931 6.776 5.19.377.45-.154.975.411 1.221.6-.728 1.198-1.457 1.798-2.184.091-.11.141-.1.021-.198-.427-.353-.476.212-1.002.154-.533-.089-4.395-3.369-5.895-4.61l8.199-.304c.3-.011 1.139.896 1.068 1.216-.081.378-.463.558.054.794.479-.575.985-1.149 1.456-1.734l.227-.282a.74.74 0 00.21-.265l.168-.211c.425-.485 1.8-2.006 1.635-2.15-.461-.4-.685.466-1.298-.054-.348-.249-1.223-1.788-1.443-2.162-.264-.449.608-.897.964-1.119.776-.482 3.247-1.183 3.482.348.04.258-.271.55-.084.704.044.037.204.242.27.163.163-.197 2.361-2.843 3.3-3.969-.098-.082-.207-.224-.324-.269zm-7.374 2.156c.077-.049.153-.098 0 0a2.533 2.533 0 00-.084.054l.082-.052c-.345.22-.668.473-.958.761-.521-.897-1.044-1.795-1.564-2.693 1.177.491 2.352.985 3.524 1.481a3.735 3.735 0 00-1 .449zm-9.745 11.211c-2.375-1.979-5.63-1.404-7.586.832-1.903 2.312-1.712 5.663.605 7.615 2.339 1.926 5.67 1.438 7.572-.846 1.898-2.303 1.768-5.668-.591-7.601zm-.281 6.614l-.026.027c-1.232 1.292-3.358.096-4.505-.731-1.146-.829-3.111-2.57-1.856-4.104 1.056-1.287 3.124-.231 4.191.482 1.2.803 3.412 2.596 2.276 4.216.074-.09.126-.148-.08.11z"/><path d="M124.801 33.012c1.171.959-.253-.211 0 0zm-.309 6.641l.026-.027c.029-.037.056-.073.08-.11-.049.061-.11.137-.106.137zm-6.283 2.483c.112.094.273.224-.063-.057-2.835-2.127-6.194-1.504-8.402 1.157-.988 1.189-1.976 2.378-2.961 3.567.351.512.763-.118 1.273.176.436.25 6.244 5.101 6.339 5.366.164.458-.255.548.144.875.172.143 4.536-5.245 4.935-6.191.69-1.755.14-3.678-1.265-4.893zm-1.318 6.754c-.24.296-.044.054-.665.65-.306.293-6.438-4.675-6.192-4.944.835-.918 2.567-1.556 3.577-1.297 2.19.56 5.213 3.26 3.28 5.591z"/></g></symbol><symbol id="text-sedona" viewBox="0 0 459.754 79.805"><path d="M44.466 21.738c-3.572-2.979-8.139-4.963-12.902-4.963-3.572 0-8.338 2.084-8.338 6.253 0 4.368 5.261 6.055 8.636 7.146l4.964 1.489C47.248 34.74 55.287 40 55.287 52.11c0 7.445-1.787 15.088-7.742 20.149-5.855 4.964-13.697 7.048-21.24 7.048-9.43 0-18.661-3.177-26.305-8.537l8.338-15.683c4.865 4.269 10.621 7.742 17.271 7.742 4.566 0 9.43-2.283 9.43-7.545 0-5.459-7.643-7.345-11.812-8.535-12.208-3.475-20.249-6.648-20.249-21.142C2.978 10.419 13.796.495 28.785.495c7.543 0 16.775 2.382 23.426 6.154l-7.745 15.089zm47.365-2.779v12.506h21.937v16.479H91.831v12.899h23.127v16.479H72.376V2.483h42.582V18.96l-23.127-.001zm37.586-16.477h27.594c20.844 0 38.016 16.377 38.016 37.419 0 21.041-17.271 37.42-38.016 37.42h-27.594V2.482zm19.455 58.364h4.367c11.612 0 21.539-6.352 21.539-20.942 0-13.4-8.834-20.943-21.341-20.943h-4.565v41.885zm138.001-22.333c0 24.219-17.371 41.292-41.394 41.292-24.02 0-41.391-17.071-41.391-41.292C204.089 15.881 223.941 0 245.479 0c21.54 0 41.394 15.881 41.394 38.513zm-62.534.099c0 12.905 9.529 22.333 21.141 22.333 11.613 0 21.144-9.43 21.144-22.333 0-10.323-9.526-19.752-21.144-19.752-11.613 0-21.141 9.43-21.141 19.752zm72.899-36.13h19.454l35.636 45.757h.196V2.482h19.453v74.839h-19.453L316.89 31.465h-.197v45.856h-19.454V2.482zm110.107 61.837l-5.16 13.002h-20.646l28.785-74.839h21.242l28.188 74.839h-20.745l-4.862-13.002h-26.802zm13.6-38.71h-.199l-8.039 23.824h16.178l-7.94-23.824z" fill="#FFF"/></symbol><symbol id="text-sedona-index" viewBox="0 0 459.754 350.074"><path d="M165.422 70.001l-.203.229c-1.353 1.469-3.022 2.188-4.521 2.217l2.822-4.865c1.813-3.139.144-6.104-2.679-6.104-2.303 0-4.088.92-5.815 3.916l-1.468 2.562-1.227 2.098-.154.177c-2.159 2.506-4.262 4.491-5.586 4.491-.662 0-1.037-.461-.346-1.641l6.422-11.201h2.446l.864-1.44H153.5l2.822-4.893h-2.994l-2.822 4.895h-2.707l-.864 1.44h2.735l-6.019 10.423c-1.267 2.217-.374 4.262 2.044 4.262 1.739 0 3.662-1.309 5.512-3.084-.006 3.816 5.297 4.562 8.539.463h.661c1.785 0 4.606-1.094 6.134-2.907-.199-.405-.716-.865-1.119-1.038zm-6.392.203h-.145c-.979 0-1.756.806-1.756 1.785 0 .373.115.72.289 1.009l-.029.057c-1.411 2.419-4.838 1.958-3.053-1.151l2.274-3.944 1.44-2.447c2.102-3.569 4.98-2.159 3.166.95l-2.186 3.741zm47.847-.203l-.201.229c-2.16 2.506-4.924 4.491-7.025 4.491-1.844 0-2.938-1.151-1.555-3.569l.287-.52c1.93.807 5.558.432 7.804-3.455l.432-.749c1.612-2.764.058-4.837-2.39-4.837-2.419 0-4.348 1.268-5.615 3.455l-2.906 4.984-.173.199c-2.159 2.504-4.261 4.49-5.586 4.49-.661 0-1.036-.461-.346-1.641l4.319-7.571c1.295-2.274.059-3.916-1.612-3.916-1.296 0-2.679.72-4.175 2.274l4.779-8.32h-2.994l-8.354 14.492-.168.191c-2.159 2.506-4.261 4.491-5.586 4.491-.662 0-1.037-.461-.345-1.641l6.42-11.201h2.447l.864-1.44h-2.476l2.822-4.893h-2.994l-2.822 4.895h-2.706l-.864 1.44h2.735l-6.019 10.423c-1.267 2.217-.373 4.262 2.045 4.262 1.213 0 2.517-.639 3.821-1.627l-.771 1.338h3.022l4.55-7.916c4.606-5.789 6.65-5.039 5.354-2.822l-3.888 6.767c-1.267 2.218-.373 4.263 2.045 4.263 1.781 0 3.757-1.375 5.646-3.217.145 1.864 1.653 3.217 4.055 3.217 3.396 0 6.766-2.649 9.242-5.529-.196-.404-.714-.864-1.118-1.037zm-5.701-4.204c1.729-2.965 4.781-2.477 2.996.634l-.433.749c-1.438 2.447-3.368 2.391-4.491 1.987l1.928-3.37zm114.871 4.204l-.201.229a18.785 18.785 0 01-3.601 3.254c.95-2.851.749-7.228 2.593-11.057l-2.246-1.209c-1.238 1.699-3.944 5.615-6.651 8.782l.001.001-.201.229c-2.158 2.506-4.261 4.491-5.586 4.491-.662 0-1.036-.461-.345-1.641l6.392-11.201h-2.994l-5.326 9.3c-2.274 2.072-4.031 3.225-4.606 2.965-.749-.315 0-1.438.374-2.072l5.845-10.192H296.5l-4.695 8.124-.197.227c-1.354 1.469-3.023 2.188-4.521 2.217l2.821-4.865c1.813-3.139.146-6.104-2.678-6.104-2.304 0-4.089.92-5.815 3.916l-1.469 2.562-1.227 2.097-.154.178c-2.159 2.506-4.924 4.491-7.025 4.491-1.843 0-2.938-1.151-1.555-3.569l.288-.52c1.929.807 5.558.432 7.803-3.455l.433-.749c1.611-2.764.058-4.837-2.391-4.837-2.419 0-4.348 1.268-5.615 3.455l-2.904 4.984-.174.199c-2.477 2.851-4.606 4.691-6.969 5.699l6.709-11.459h-1.757c0-1.238-1.267-2.879-3.138-2.879-1.612 0-3.858 1.268-5.126 3.455l-2.871 4.957-.007-.004-.201.23c-2.159 2.504-4.262 4.49-5.586 4.49-.662 0-1.036-.461-.346-1.641l2.994-5.241c1.036-1.813.547-2.879-.433-4.06l-1.67-2.017c-.433-.547-.433-1.151.173-1.728l-1.555-1.699c-1.699 1.525-1.844 3.225-.777 4.607l.26.346c-1.324 1.872-3.109 4.404-5.068 6.709l.002.004-.2.229c-1.354 1.467-3.022 2.188-4.521 2.217l2.82-4.866c1.814-3.138.145-6.104-2.678-6.104-2.303 0-4.088.922-5.814 3.916l-1.47 2.562-1.228 2.101-.152.175c-2.477 2.851-4.607 4.691-6.969 5.699l6.709-11.459H226.8c0-1.238-1.267-2.879-3.139-2.879-1.611 0-3.857 1.268-5.125 3.455l-4.203 7.256c-1.268 2.217-.375 4.262 2.043 4.262.836 0 1.844-.375 2.852-1.008l-.835 1.41c-4.031 1.238-6.565 2.879-6.565 5.125 0 2.88 4.405 3.484 6.565-.201l2.274-3.945c2.396-.746 4.743-2.155 7.18-4.481-.021 3.832 5.294 4.585 8.539.479h.662c1.785 0 4.607-1.094 6.133-2.908 1.438-1.67 2.562-3.168 4.951-6.42l.402.49c.374.489.52 1.094.174 1.698l-3.168 5.5c-1.268 2.218-.375 4.263 2.045 4.263 1.518 0 3.176-.998 4.801-2.431-.049 1.392.879 2.431 2.598 2.431.835 0 1.843-.375 2.852-1.009L257 76.966c-4.031 1.238-6.563 2.879-6.563 5.125 0 2.88 4.405 3.483 6.563-.201l2.274-3.944c2.44-.762 4.83-2.215 7.315-4.617.133 1.875 1.646 3.236 4.057 3.236 2.438 0 4.859-1.367 6.947-3.201-.117 3.92 5.267 4.721 8.541.58h.662c.938 0 2.158-.309 3.33-.856-.806 2.081-.063 3.478 1.649 3.478 1.642 0 3.483-1.498 4.923-2.879-.288 1.611.662 2.879 2.562 2.879 2.477 0 5.326-2.648 7.804-5.528l-.001-.001c1.697-1.959 3.195-4.059 4.261-5.469-1.181 3.108-.548 8.694-3.397 8.694-1.008 0-1.41-1.094-1.41-1.094l-1.872.979s.547 2.42 3.282 2.42c.287 0 .548-.029.834-.06.029 0 .059-.028.088-.028 3.052-.402 6.074-2.82 8.32-5.441-.172-.461-.691-.922-1.122-1.037zm-42.983-4.204c1.728-2.965 4.778-2.477 2.993.634l-.432.749c-1.439 2.447-3.369 2.391-4.492 1.987l1.931-3.37zm-57.177 15.606c-.633 1.123-1.641.951-1.641.145 0-.777.721-1.67 2.994-2.562l-1.353 2.417zm1.383-6.68c-.662 0-1.037-.461-.346-1.641l4.176-7.285c1.611-2.793 4.809-2.073 3.34.634l-2.273 3.974c-1.816 2.908-3.63 4.318-4.897 4.318zm18.397-4.519h-.145c-.979 0-1.756.806-1.756 1.785 0 .373.115.72.287 1.009l-.028.057c-1.41 2.419-4.837 1.958-3.052-1.151l2.273-3.944 1.439-2.447c2.104-3.569 4.98-2.159 3.168.95l-2.186 3.741zm18.827 11.199c-.634 1.123-1.642.951-1.642.145 0-.777.72-1.67 2.994-2.562l-1.352 2.417zm1.381-6.68c-.662 0-1.035-.461-.346-1.641l4.176-7.285c1.612-2.793 4.809-2.073 3.34.634l-2.274 3.974c-1.813 2.908-3.63 4.318-4.896 4.318zm29.54-4.519h-.145c-.979 0-1.756.806-1.756 1.785 0 .373.115.72.287 1.009l-.028.057c-1.41 2.419-4.837 1.958-3.052-1.151l2.273-3.944 1.439-2.447c2.103-3.569 4.98-2.159 3.168.95l-2.186 3.741zm-183.993-3.381h28.918v1.957h-28.918zm227 0h28.918v1.957h-28.918z" fill="#766458"/><path d="M163.183 0h7.707l-1.209 44.918h-14.525l-1.975-18.545-1.975 18.545h-14.589L135.471 0h7.645l.637 37.152h.828L149.359 0h7.581l4.906 37.152h.765L163.183 0zm31.851 37.152v7.766h-20.896V0h20.896v7.7h-13.251v10.844h10.575v7.7h-10.575v10.908h13.251zm21.339 0v7.766H198.09V0h7.646v37.152h10.637zm16.244-8.791l7.708-1.797v13.604c0 2.567-2.166 4.749-4.714 4.749h-11.469c-2.611 0-4.713-2.182-4.713-4.749V4.749c0-2.632 2.103-4.749 4.713-4.749h11.468c2.548 0 4.714 2.117 4.714 4.749v9.112l-7.708 1.796V7.7h-5.543v29.452h5.543l.001-8.791zM261.089 0c2.549 0 4.715 2.117 4.715 4.749v35.42c0 2.567-2.166 4.749-4.715 4.749h-11.468c-2.61 0-4.714-2.182-4.714-4.749V4.749c0-2.631 2.104-4.749 4.714-4.749h11.468zm-2.994 7.7h-5.543v29.452h5.543V7.7zM290.837 0h7.58v44.918h-7.645V22.844l-3.059 11.422h-7.453l-2.994-11.422v22.074h-7.646V0h7.581l6.816 21.688L290.837 0zm32.297 37.152v7.766h-20.896V0h20.896v7.7h-13.252v10.844h10.575v7.7h-10.575v10.908h13.252z" fill="#81B3D3"/><path d="M44.467 157.61c-3.572-2.979-8.139-4.963-12.902-4.963-3.572 0-8.338 2.084-8.338 6.253 0 4.368 5.261 6.055 8.636 7.146l4.964 1.489c10.422 3.077 18.461 8.337 18.461 20.447 0 7.445-1.787 15.088-7.742 20.15-5.855 4.963-13.697 7.047-21.24 7.047-9.43 0-18.661-3.176-26.305-8.537l8.338-15.682c4.865 4.268 10.621 7.742 17.271 7.742 4.566 0 9.43-2.283 9.43-7.545 0-5.459-7.643-7.344-11.812-8.535-12.208-3.475-20.249-6.65-20.249-21.143 0-15.188 10.818-25.112 25.807-25.112 7.543 0 16.775 2.382 23.426 6.154l-7.745 15.089zm47.365-2.779v12.506h21.937v16.479H91.832v12.9h23.127v16.479H72.377v-74.84h42.582v16.477H91.832zm37.586-16.477h27.594c20.844 0 38.016 16.377 38.016 37.42 0 21.041-17.271 37.42-38.016 37.42h-27.594v-74.84zm19.455 58.364h4.367c11.612 0 21.539-6.352 21.539-20.943 0-13.4-8.834-20.943-21.341-20.943h-4.565v41.886zm138.001-22.333c0 24.219-17.371 41.292-41.393 41.292-24.02 0-41.391-17.072-41.391-41.292 0-22.632 19.852-38.513 41.391-38.513s41.393 15.881 41.393 38.513zm-62.534.099c0 12.904 9.529 22.333 21.141 22.333 11.613 0 21.143-9.43 21.143-22.333 0-10.323-9.527-19.752-21.143-19.752-11.613 0-21.141 9.43-21.141 19.752zm72.899-36.13h19.455l35.635 45.758h.197v-45.758h19.453v74.84h-19.453l-35.635-45.857h-.197v45.857h-19.455v-74.84zm110.107 61.838l-5.16 13.002H381.54l28.785-74.84h21.242l28.188 74.84H439.01l-4.863-13.002h-26.801zm13.6-38.711h-.199l-8.039 23.823h16.178l-7.94-23.823z" fill="#FFF"/><g fill="#FFF"><path d="M108.081 287.741c7.658-2.589 8.242-12.181.693-12.181-2.079 0-4.559 1.459-6.272 4.449L92.29 297.66a14.686 14.686 0 01-1.458 2.151c-2.626-3.61-1.86-9.007 1.823-11.378l-1.532-1.934c-7.95 5.069-5.616 19.693 7.659 19.693 11.342.002 16.593-13.6 9.299-18.451zm-9.372 15.535c-2.261 0-4.048-.511-5.47-1.312.656-.767 1.312-1.715 1.896-2.699l6.381-11.05 1.021.108c8.9 1.862 5.362 14.953-3.828 14.953zm4.084-17.286l3.063-5.251c2.771-4.776 6.309-1.969 4.412 1.604-1.456 2.735-3.609 3.574-7.475 3.647z"/><path d="M140.161 300.002c-.629 2.248.572 4.076 3.146 4.076 1.531 0 3.428-.984 5.25-2.479.184 1.459 1.351 2.479 3.283 2.479 2.02 0 4.234-1.395 6.393-3.357-.42 2.048.541 3.357 2.41 3.357 2.08 0 4.414-1.896 6.236-3.646-.365 2.042.84 3.646 3.246 3.646 3.137 0 6.747-3.354 9.883-7.002-.025-.05-.068-.102-.101-.151 2.097-2.438 3.946-5.026 5.269-6.777-1.496 3.938-.693 11.014-4.305 11.014-1.275 0-1.787-1.386-1.787-1.386l-2.371 1.24s.693 3.062 4.157 3.062c.365 0 .692-.037 1.058-.072.037 0 .073-.036.109-.036 2.786-.368 5.55-2.064 7.943-4.225.058 2.495 1.994 4.333 5.145 4.333 4.303 0 8.57-3.354 11.707-7.002-.255-.511-.912-1.094-1.422-1.312l-.255.292c-2.735 3.172-6.236 5.688-8.897 5.688-2.334 0-3.721-1.459-1.97-4.521l.365-.657c2.442 1.021 7.038.547 9.883-4.376l.547-.948c2.042-3.501.073-6.127-3.026-6.127-3.063 0-5.508 1.605-7.111 4.376l-3.684 6.318c-.035-.012-.07-.037-.104-.046l-.255.292a23.678 23.678 0 01-4.559 4.121c1.203-3.61.948-9.153 3.282-14.004l-2.844-1.532c-1.568 2.151-4.996 7.111-8.425 11.123.033.046.074.091.111.138l-.136.154c-2.735 3.172-5.397 5.688-7.075 5.688-.838 0-1.312-.583-.438-2.079l8.096-14.187h-3.793l-6.747 11.779c-2.881 2.626-5.104 4.084-5.835 3.756-.947-.401 0-1.823.475-2.625l7.402-12.91h-3.793l-6.036 10.446c-.098-.061-.196-.123-.288-.162l-.255.292c-2.735 3.172-5.397 5.688-7.075 5.688-.838 0-1.312-.583-.438-2.079l6.127-10.722h-2.152c.146-1.605-1.494-3.83-3.975-3.83-2.042 0-4.887 1.605-6.491 4.376l-3.846 6.637a2.85 2.85 0 00-.577-.364l-.255.292c-2.735 3.172-6.236 5.688-8.897 5.688-2.334 0-3.721-1.459-1.971-4.521l3.902-6.783c2.188-3.756 6.054-3.136 3.791.802l-.547.948h3.101l.547-.948c2.042-3.501.073-6.127-3.026-6.127-3.063 0-5.508 1.605-7.111 4.376l-3.77 6.467a2.414 2.414 0 00-.348-.194l-.255.292c-2.735 3.172-6.236 5.688-8.897 5.688-2.335 0-3.721-1.459-1.971-4.521l.365-.657c2.443 1.021 7.039.547 9.883-4.376l.547-.948c2.042-3.501.073-6.127-3.027-6.127-3.062 0-5.507 1.605-7.11 4.376l-3.976 6.819c-2.371 4.048-.328 7.768 4.157 7.768 3.341 0 6.657-2.023 9.442-4.635-.098 2.646 1.865 4.635 5.141 4.635 3.1.005 6.176-1.735 8.828-4.071zm58.029-9.563c2.188-3.756 6.054-3.136 3.791.802l-.547.948c-1.822 3.1-4.267 3.027-5.688 2.516l2.444-4.266zm-54.191 9.227l5.288-9.227c2.042-3.538 6.09-2.626 4.229.802l-2.953 5.18c-2.297 3.609-4.56 5.323-6.127 5.323-.837 0-1.312-.583-.437-2.078zm-24.184-9.227c2.188-3.756 6.054-3.136 3.791.802l-.547.948c-1.822 3.1-4.267 3.027-5.688 2.516l2.444-4.266zm128.584 13.639c4.303 0 8.571-3.354 11.706-7.002-.254-.511-.91-1.094-1.422-1.312l-.254.292c-2.736 3.172-6.236 5.688-8.899 5.688-2.334 0-3.721-1.459-1.971-4.521l.365-.657c2.444 1.021 7.038.547 9.883-4.376l.547-.948c2.043-3.501.074-6.127-3.027-6.127-3.061 0-5.505 1.605-7.11 4.376l-3.693 6.336c-.037-.019-.077-.048-.113-.063l-.256.292c-2.734 3.172-5.396 5.688-7.074 5.688-.839 0-1.312-.583-.438-2.079l5.47-9.591c1.642-2.881.073-4.96-2.042-4.96-1.643 0-3.393.912-5.288 2.881l6.054-10.54h-3.793l-10.697 18.56a2.47 2.47 0 00-.434-.251l-.256.292c-2.735 3.172-5.396 5.688-7.075 5.688-.838 0-1.312-.583-.438-2.079l8.133-14.187h3.101l1.095-1.823h-3.137l3.574-6.2h-3.793l-3.574 6.2h-3.428l-1.094 1.823h3.463l-7.622 13.204c-1.604 2.808-.474 5.396 2.589 5.396 1.885 0 3.941-1.216 5.962-2.975l-1.504 2.61h3.83l5.762-10.029c5.835-7.33 8.425-6.382 6.783-3.574l-4.923 8.571c-1.604 2.808-.475 5.396 2.589 5.396 2.305 0 4.864-1.812 7.304-4.221.111 2.441 2.041 4.222 5.145 4.222zm3.063-13.639c2.188-3.756 6.055-3.136 3.793.802l-.547.948c-1.824 3.1-4.268 3.027-5.69 2.516l2.444-4.266zm111.955 5.326l-.256.292c-2.732 3.172-5.396 5.688-7.074 5.688-.838 0-1.312-.583-.438-2.079l12.838-22.209h-3.793l-5.58 9.628c-.656-1.058-1.896-1.97-3.465-1.97-2.043 0-4.887 1.605-6.492 4.376l-3.711 6.406c-.08-.047-.162-.101-.236-.133l-.256.292c-2.734 3.172-5.396 5.688-7.074 5.688-.84 0-1.312-.583-.438-2.079l5.469-9.591c1.643-2.881.074-4.96-2.041-4.96-1.643 0-3.355.875-5.252 2.845l1.422-2.479h-3.793l-6.061 10.487a2.476 2.476 0 00-.361-.203l-.256.292c-2.734 3.172-5.396 5.688-7.074 5.688-.838 0-1.312-.583-.438-2.079l6.127-10.722h-2.152c.146-1.604-1.494-3.83-3.975-3.83-2.043 0-4.889 1.605-6.492 4.376l-3.666 6.329-.207.235c-2.734 3.172-5.396 5.688-7.074 5.688-.838 0-1.312-.583-.438-2.079l3.793-6.637c1.312-2.298.691-3.646-.547-5.142l-2.115-2.554c-.547-.692-.547-1.458.219-2.188l-1.969-2.151c-2.152 1.934-2.334 4.084-.986 5.835l.33.438c-1.678 2.371-3.939 5.58-6.42 8.497.074.107.164.215.258.321-3.125 3.593-5.781 5.918-8.762 7.191l4.812-8.242H286l-.4.657c-2.006 3.537-4.305 6.054-7.258 6.054-2.59 0-3.062-2.589-.803-6.455l1.059-1.859c.691.108 1.387.183 2.15.183 13.494 0 20.021-18.052 8.135-18.052-2.08 0-4.561 1.459-6.273 4.449l-5.908 10.175c-2.225-1.167-3.391-3.282-3.391-5.397 0-1.75.803-3.501 2.441-4.776l-1.238-2.226c-2.699 1.934-3.902 4.522-3.902 7.075 0 3.027 1.715 5.944 4.777 7.549l-1.131 1.97c-2.662 4.595-2.188 9.7 3.174 9.7 1.604 0 2.953-.474 4.121-1.204l-.986 1.715c-5.141 1.567-8.314 3.646-8.314 6.49 0 3.647 5.58 4.413 8.314-.255l2.918-4.996c3.939-1.239 7.805-3.938 11.963-8.752a2.235 2.235 0 00-.236-.356c1.684-1.979 3.113-3.889 5.971-7.775l.51.62c.475.62.656 1.386.219 2.152l-4.012 6.963c-1.605 2.808-.475 5.396 2.59 5.396 1.906 0 3.988-1.244 6.033-3.036-.045 1.745 1.148 3.036 3.311 3.036 1.531 0 3.428-.984 5.25-2.479.184 1.459 1.352 2.479 3.283 2.479 1.816 0 3.791-1.129 5.742-2.785l-1.398 2.421h3.828l5.799-10.103c5.799-7.257 8.389-6.309 6.746-3.501l-4.922 8.571c-1.604 2.808-.475 5.396 2.588 5.396 2.018 0 4.227-1.388 6.381-3.346-.201 1.901 1.008 3.346 3.295 3.346 1.531 0 3.428-.984 5.252-2.479.182 1.459 1.35 2.479 3.281 2.479 3.137 0 6.746-3.354 9.883-7.002-.257-.506-.913-1.09-1.425-1.307zm-77.962-14.151c1.131-1.933 2.371-2.771 3.43-2.771 6.018 0 1.787 12.253-8.133 12.253h-.766l5.469-9.482zm-8.059 28.591c-.801 1.422-2.078 1.204-2.078.184 0-.985.875-2.115 3.793-3.246l-1.715 3.062zm39.693-13.784c-2.299 3.609-4.559 5.323-6.127 5.323-.84 0-1.312-.583-.438-2.079l5.287-9.227c2.043-3.538 6.09-2.626 4.23.802l-2.952 5.181zm36.702-.22c-2.299 3.756-4.633 5.543-6.236 5.543-.838 0-1.312-.583-.438-2.079l5.287-9.227c2.043-3.538 6.09-2.626 4.23.802h.035l-2.878 4.961zm-117.078 35.563l-.255.293c-2.734 3.172-5.396 5.688-7.074 5.688-.84 0-1.312-.583-.438-2.079l5.471-9.591c1.642-2.881.072-4.96-2.043-4.96-1.642 0-3.354.875-5.251 2.845l1.422-2.479h-3.793l-6.111 10.574a2.721 2.721 0 00-.484-.291l-.256.293c-1.713 1.858-3.829 2.771-5.725 2.808l3.573-6.163c2.297-3.976.183-7.73-3.392-7.73-2.918 0-5.178 1.167-7.367 4.96l-1.86 3.245-1.626 2.781a2.407 2.407 0 00-.343-.192l-.255.293c-3.137 3.608-5.799 5.942-8.789 7.221l10.395-17.797h-3.793l-6.709 11.67c-2.918 2.698-5.179 4.193-5.908 3.865-.948-.4 0-1.823.474-2.625l7.403-12.91h-3.793l-6.051 10.47a2.584 2.584 0 00-.332-.187l-.255.293c-2.735 3.172-5.397 5.688-7.075 5.688-.838 0-1.312-.583-.438-2.079l5.47-9.591c1.642-2.881.073-4.96-2.042-4.96-1.641 0-3.355.875-5.251 2.845l1.423-2.479h-3.794l-6.062 10.486a2.521 2.521 0 00-.36-.203l-.255.293c-2.734 3.172-5.396 5.688-7.075 5.688-.838 0-1.312-.583-.438-2.079l6.128-10.721h-2.152c.146-1.604-1.495-3.83-3.976-3.83-2.041 0-4.887 1.605-6.49 4.377l-3.918 6.763c-.26-.235-.559-.417-.831-.49l-.255.293c-2.735 3.172-6.09 5.688-9.848 5.688-2.588 0-4.156-2.589-1.896-6.455l1.058-1.859c.693.108 1.387.184 2.151.184 4.048 0 8.644-2.08 11.634-7.295 1.057-1.859 1.531-3.609 1.531-5.104 0-3.429-2.225-5.652-5.032-5.652-2.079 0-4.559 1.459-6.272 4.449l-5.908 10.175c-2.225-1.167-3.393-3.282-3.393-5.397 0-1.75.803-3.501 2.443-4.776l-1.24-2.226c-2.699 1.935-3.902 4.521-3.902 7.075 0 3.026 1.715 5.944 4.777 7.549l-1.13 1.971c-2.661 4.595-1.094 9.699 4.267 9.699 4.242 0 7.354-1.889 9.969-4.372-.826 2.384.374 4.372 3.059 4.372 1.532 0 3.428-.984 5.252-2.479.182 1.459 1.35 2.479 3.281 2.479 1.816 0 3.792-1.129 5.742-2.783l-1.398 2.42h3.829l5.798-10.103c5.799-7.258 8.389-6.31 6.748-3.502l-4.923 8.568c-1.604 2.809-.474 5.396 2.589 5.396 2.041 0 4.282-1.425 6.465-3.423-.455 2.086.508 3.423 2.397 3.423 1.824 0 3.901-1.531 5.616-3.062l-2.079 3.574c-5.142 1.53-8.351 3.646-8.351 6.49 0 3.647 5.58 4.413 8.313-.255l2.917-4.996c3.171-.998 6.297-2.965 9.562-6.195-.523 5.297 6.533 6.505 10.787 1.126h.838c1.385 0 3.26-.523 4.953-1.455l-2.55 4.41h3.83l5.798-10.103c5.799-7.258 8.389-6.31 6.747-3.502l-4.923 8.571c-1.604 2.809-.475 5.396 2.59 5.396 3.137 0 6.746-3.354 9.883-7.002-.256-.513-.912-1.097-1.423-1.315zm-94.387-14.15c1.13-1.933 2.371-2.771 3.428-2.771 1.423 0 2.079.947 2.079 2.334 0 3.538-4.303 9.919-10.211 9.919h-.766l5.47-9.482zm13.355 14.807c-2.297 3.609-4.559 5.323-6.127 5.323-.838 0-1.312-.583-.438-2.079l5.288-9.227c2.042-3.537 6.09-2.625 4.229.803l-2.952 5.18zm28.851 13.783c-.803 1.423-2.079 1.204-2.079.185 0-.985.912-2.115 3.829-3.246l-1.75 3.061zm25.528-14.184h-.184c-1.24 0-2.225 1.021-2.225 2.262 0 .475.146.911.365 1.275l-.037.073c-1.786 3.062-6.127 2.479-3.865-1.459l2.881-4.996 1.823-3.101c2.663-4.521 6.309-2.734 4.012 1.204l-2.77 4.742zm114.561 1.057c-.219-.583-.875-1.167-1.422-1.312l-.256.293a23.668 23.668 0 01-4.559 4.12c1.203-3.61.947-9.153 3.281-14.004l-2.846-1.532c-1.566 2.151-4.996 7.111-8.424 11.123.006.01.016.018.021.025-.016-.007-.031-.02-.047-.025l-.254.293c-2.736 3.172-5.396 5.688-7.076 5.688-.838 0-1.641-.839-1.641-2.553v-1.568c2.662.328 5.471-1.423 7.258-4.521l1.021-1.75c3.535-6.054-2.227-8.061-6.092-4.521l5.396-9.373h-3.793l-10.816 18.767a2.984 2.984 0 00-.693-.459l-.256.293c-2.734 3.172-6.236 5.688-8.898 5.688-2.334 0-3.719-1.459-1.969-4.521l3.9-6.783c2.189-3.756 6.055-3.136 3.793.803l-.547.948h3.102l.547-.948c2.041-3.501.072-6.127-3.027-6.127-3.062 0-5.508 1.605-7.111 4.377l-3.732 6.404c-.078-.047-.16-.101-.234-.133l-.256.293c-2.734 3.172-5.396 5.688-7.074 5.688-.84 0-1.312-.583-.438-2.079l8.096-14.186h-3.793l-6.746 11.779c-2.883 2.625-5.105 4.084-5.836 3.756-.947-.4 0-1.823.475-2.625l7.402-12.91h-3.793l-7.365 12.744a22.733 22.733 0 01-2.449 1.952c1.203-3.61.947-9.153 3.281-14.004l-2.844-1.532c-1.568 2.151-10.321 13.75-13.75 17.761.327.474.876.948 1.423 1.313 2.15-2.48 9.372-11.779 10.723-13.566-1.496 3.938-.693 11.014-4.305 11.014-1.275 0-1.787-1.387-1.787-1.387l-2.37 1.24s.692 3.062 4.157 3.062c.365 0 .693-.036 1.059-.072.035 0 .072-.036.107-.036 1.928-.255 3.842-1.143 5.631-2.379-.012 1.542.92 2.487 2.51 2.487 2.076 0 4.412-1.896 6.234-3.646-.363 2.043.838 3.646 3.246 3.646 2.355 0 4.979-1.893 7.467-4.38.033 2.52 1.975 4.38 5.145 4.38 3.078 0 6.137-1.72 8.775-4.031l-2.113 3.668h3.83l4.34-7.55v3.026c0 3.245.619 4.887 3.682 4.887 3.137 0 6.748-3.354 9.885-7.002-.006-.011-.018-.021-.021-.034.016.013.031.023.047.034 2.152-2.479 4.049-5.142 5.396-6.929-1.494 3.938-.691 11.014-4.303 11.014-1.275 0-1.787-1.387-1.787-1.387l-2.371 1.24s.693 3.062 4.158 3.062c.363 0 .691-.036 1.059-.072.035 0 .07-.036.107-.036 3.866-.514 7.696-3.576 10.54-6.895zm-25.188-2.991l1.094-1.896c4.377-6.091 7.367-4.413 6.018-2.115l-1.822 3.136c-1.134 1.97-4.452 3.355-5.29.875zm25.041 5.579c-1.24 0-2.189.984-2.189 2.226s.949 2.188 2.189 2.188c1.238 0 2.225-.947 2.225-2.188s-.987-2.226-2.225-2.226zm.182-1.494h3.83l11.887-20.715h-3.791z"/></g><path fill="#FFF" d="M80.412 277.581a2.466 2.466 0 01-.676 1.676 2.612 2.612 0 01-.829.574 2.655 2.655 0 01-1.1.221 3.44 3.44 0 01-1.303-.253 2.946 2.946 0 01-1.064-.729 3.101 3.101 0 01-.575-1.049 4.017 4.017 0 01-.203-1.285c0-.855.151-1.646.457-2.368a5.988 5.988 0 011.302-1.928c.248-.248.529-.479.846-.694.315-.213.614-.394.896-.541.281-.146.523-.264.727-.354.203-.09.328-.146.373-.169l1.353 1.996c-.249.09-.524.209-.829.354a4.556 4.556 0 00-.861.541 2.932 2.932 0 00-.678.761c-.18.293-.281.633-.304 1.016a2.74 2.74 0 011.725.575c.495.383.743.935.743 1.656zm7.866 0c0 .293-.057.587-.17.879a2.388 2.388 0 01-.506.796 2.652 2.652 0 01-1.93.795c-.451 0-.885-.084-1.302-.253a2.935 2.935 0 01-1.065-.728c-.248-.293-.439-.643-.574-1.049s-.203-.834-.203-1.285c0-.855.152-1.646.457-2.368a6.004 6.004 0 011.302-1.928c.248-.248.528-.479.847-.693.314-.214.613-.394.896-.541.282-.146.524-.265.728-.354s.327-.146.372-.169l1.353 1.996c-.248.09-.523.209-.828.354-.305.147-.592.327-.863.541s-.496.468-.676.761a2.134 2.134 0 00-.305 1.016 2.74 2.74 0 011.725.575c.494.382.742.934.742 1.655zm265.161 58.942c0-.294.057-.588.168-.88.113-.294.283-.559.508-.795a2.59 2.59 0 01.828-.575 2.67 2.67 0 011.1-.22c.451 0 .887.085 1.303.253.418.17.771.412 1.064.729.25.293.441.644.576 1.048.135.406.203.834.203 1.286 0 .855-.152 1.646-.457 2.367s-.738 1.364-1.303 1.928a5.621 5.621 0 01-.848.693 8.174 8.174 0 01-.895.541 11.82 11.82 0 01-.729.355 8.514 8.514 0 00-.371.17l-1.354-1.996c.248-.09.523-.209.828-.355.305-.146.592-.327.863-.541.27-.215.496-.469.676-.762.182-.293.283-.631.305-1.014a2.739 2.739 0 01-1.725-.576c-.492-.382-.74-.936-.74-1.656zm-7.867 0c0-.294.057-.588.17-.88a2.38 2.38 0 01.506-.795c.227-.237.504-.43.83-.575.326-.146.693-.22 1.1-.22.451 0 .885.085 1.303.253.416.17.771.412 1.064.729.248.293.439.644.574 1.048.137.406.203.834.203 1.286a6.02 6.02 0 01-.457 2.367 5.99 5.99 0 01-1.301 1.928 5.703 5.703 0 01-.846.693 9.328 9.328 0 01-.896.541 11.82 11.82 0 01-.729.355 7.442 7.442 0 00-.371.17l-1.355-1.996c.25-.09.525-.209.83-.355.305-.146.592-.327.861-.541.271-.215.496-.469.678-.762.18-.293.281-.631.305-1.014a2.752 2.752 0 01-1.727-.576c-.494-.382-.742-.936-.742-1.656z"/></symbol><symbol id="logo-htmlacademy"><path d="M13.62.017L13.472 0 0 1.412v24.661l13.473 8.017 13.43-7.99.042-.025V1.412L13.62.017zm11.399 12.11L13.495 5.334l-.001-.104-.087.05-.088-.056v.109L1.925 12.118V3.147l11.548-1.212L25.02 3.147v8.98zm-11.614-5.34L24.923 13.5l-4.479 2.64-7.093-4.221-.014 1.415 5.904 3.513-.86.507-5.03-2.992-.014 1.415 3.827 2.275-.782.523-3.031-1.787-.014 1.413 1.853 1.091-1.8 1.081-11.356-6.751 11.371-6.835zm-11.48 8.34l11.411 6.791.016 1.044-7.942-4.728-.015 1.416 7.979 4.795.018 1.076-7.973-4.74-.013 1.414 8.021 4.822.046.025 8.143-4.872-.011-5.177 3.415-2.036v10.021L13.472 31.85 1.925 24.979v-9.852z"/></symbol></svg>